<?xml version="1.0" standalone="no"?>
<!DOCTYPE svg PUBLIC "-//W3C//DTD SVG 20010904//EN"
 "http://www.w3.org/TR/2001/REC-SVG-20010904/DTD/svg10.dtd">
<svg version="1.0" xmlns="http://www.w3.org/2000/svg"
 width="512.000000pt" height="512.000000pt" viewBox="0 0 512.000000 512.000000"
 preserveAspectRatio="xMidYMid meet">

<g transform="translate(0.000000,512.000000) scale(0.100000,-0.100000)"
fill="#000000" stroke="none">
<path d="M3365 4168 c-50 -68 -135 -214 -135 -230 0 -5 -13 -35 -30 -68 -16
-33 -30 -68 -30 -78 0 -10 -3 -22 -7 -26 -5 -4 -12 -31 -18 -59 -9 -46 -13
-52 -38 -55 -17 -2 -42 7 -70 25 -23 15 -55 34 -70 42 -15 8 -44 35 -64 59
l-37 45 -18 -23 c-10 -12 -18 -30 -18 -40 0 -10 -7 -31 -15 -46 -8 -16 -15
-39 -15 -52 0 -13 -5 -33 -12 -45 -39 -70 -39 -394 -1 -455 8 -13 13 -33 11
-45 -3 -21 -15 -23 -135 -18 -6 1 -22 34 -34 74 -13 39 -27 74 -31 75 -20 9
-3 102 28 164 22 42 18 95 -11 124 -14 14 -25 36 -25 50 0 13 -7 41 -15 61 -8
19 -15 45 -15 57 0 23 -25 50 -67 74 -34 18 -47 15 -71 -18 -13 -16 -29 -30
-36 -30 -8 0 -31 -23 -52 -51 -37 -51 -37 -51 -41 -167 -3 -87 -1 -130 11
-166 13 -43 13 -52 0 -77 -7 -15 -14 -36 -14 -45 0 -20 -16 -74 -36 -122 -8
-18 -14 -55 -14 -82 0 -26 -5 -50 -11 -52 -10 -3 -22 -43 -37 -133 -6 -33 -11
-39 -27 -37 -36 7 -55 33 -55 77 0 26 -6 48 -15 55 -8 7 -15 20 -15 29 0 9 -6
23 -12 29 -7 7 -20 29 -28 50 -26 63 -73 129 -105 148 -16 9 -41 28 -54 41
-13 13 -32 23 -41 23 -10 0 -23 7 -30 15 -7 8 -22 15 -35 15 -12 0 -36 7 -53
16 -59 29 -335 4 -387 -36 -5 -4 -35 -13 -65 -20 -113 -26 -142 -42 -227 -127
-46 -45 -83 -88 -83 -96 0 -8 -29 -44 -65 -81 -36 -36 -65 -75 -65 -85 0 -10
-7 -24 -15 -31 -8 -7 -15 -22 -15 -33 0 -12 -6 -39 -14 -62 -14 -41 -36 -187
-36 -242 0 -17 -7 -44 -15 -59 -20 -40 -19 -62 8 -120 44 -92 50 -109 54 -154
5 -50 47 -112 79 -119 26 -4 54 -31 54 -51 0 -21 34 -52 86 -79 23 -11 52 -36
63 -55 12 -19 25 -36 29 -38 4 -2 18 -20 31 -40 12 -21 29 -38 36 -38 29 0 23
-19 -25 -81 -76 -97 -190 -349 -190 -419 0 -44 18 -46 25 -3 9 50 27 103 70
198 7 17 21 48 31 70 9 22 27 54 40 72 13 17 24 35 24 40 0 4 14 23 30 41 29
31 63 42 75 22 3 -5 23 -17 43 -26 20 -8 52 -22 70 -30 18 -8 43 -14 57 -14
13 0 25 -5 27 -12 7 -21 208 -24 267 -4 28 9 58 16 68 16 10 0 27 6 38 14 11
7 39 17 63 21 l42 7 0 -37 c0 -22 4 -34 10 -30 6 4 7 23 4 44 -5 33 -2 42 22
65 16 14 34 26 40 26 6 0 35 25 63 55 29 30 54 55 57 55 2 0 4 -9 4 -21 0 -30
25 -18 26 13 1 14 8 40 17 58 10 18 17 39 17 45 0 7 17 43 38 81 42 78 65 172
64 272 0 42 5 76 14 90 10 14 16 57 18 118 2 54 8 100 15 107 6 6 11 22 11 36
0 74 51 238 71 226 6 -4 10 -25 28 -153 4 -28 12 -57 19 -64 7 -7 12 -28 12
-47 1 -20 7 -54 15 -76 8 -22 15 -50 15 -62 0 -12 5 -25 10 -28 6 -3 10 -23
10 -44 0 -20 7 -46 15 -57 8 -10 15 -29 15 -41 0 -28 10 -53 21 -53 21 0 -2
109 -41 195 -5 11 -11 38 -14 60 -12 90 -24 152 -34 178 -7 16 -12 37 -12 49
0 11 -6 34 -14 51 -8 18 -18 52 -22 77 -10 61 -9 226 2 275 9 37 13 41 49 46
22 4 54 11 72 17 17 6 34 8 37 4 12 -11 6 -60 -9 -72 -15 -12 -11 -66 6 -85 5
-5 9 -15 9 -23 0 -8 13 -31 28 -51 27 -34 44 -92 56 -185 3 -22 10 -42 15 -45
5 -3 12 -28 16 -56 4 -27 11 -58 16 -67 7 -12 1 -23 -23 -43 -18 -15 -43 -32
-55 -38 -27 -12 -31 -48 -8 -71 8 -8 15 -19 15 -26 0 -6 36 -48 80 -94 l80
-83 0 -81 c0 -49 4 -84 11 -88 8 -5 10 20 5 92 -15 221 -18 324 -10 324 5 0
18 -7 28 -15 29 -22 153 -20 178 2 30 27 41 3 18 -40 -11 -21 -23 -64 -26 -95
-6 -52 -4 -61 18 -87 l25 -29 34 20 c31 18 99 104 99 125 0 16 -31 9 -37 -8
-21 -59 -86 -109 -105 -81 -11 17 1 114 19 153 21 46 38 73 57 94 12 13 15 27
10 45 -4 16 -1 32 7 42 8 10 12 46 12 107 -1 107 -17 154 -65 190 -56 40 -151
60 -176 35 -19 -19 -24 12 -8 57 20 58 48 69 193 73 94 3 134 0 175 -13 91
-29 182 -68 218 -94 72 -53 104 -63 128 -39 21 21 14 90 -11 119 -27 32 -113
94 -153 110 -100 42 -261 69 -339 57 -60 -9 -82 -4 -66 16 17 20 127 86 144
86 9 0 18 4 21 9 6 9 24 12 135 27 52 7 153 -5 236 -29 55 -15 169 -92 206
-138 42 -53 79 -125 79 -153 0 -13 6 -39 14 -57 17 -44 27 -252 17 -394 -5
-83 -12 -122 -28 -155 -25 -50 -24 -56 15 -65 19 -4 40 -22 60 -51 27 -38 32
-53 32 -104 0 -51 -5 -66 -32 -105 -17 -25 -40 -45 -49 -45 -10 0 -21 -4 -24
-10 -3 -5 -32 -10 -64 -10 -67 0 -77 -6 -54 -32 15 -17 15 -19 0 -36 -10 -10
-17 -22 -17 -26 0 -17 -73 -123 -108 -157 -80 -78 -208 -129 -324 -129 -77 0
-85 2 -208 57 -84 38 -210 171 -210 222 0 12 -7 24 -15 27 -17 7 -21 59 -5 69
6 4 13 -7 16 -25 7 -34 98 -130 124 -130 8 0 27 -8 40 -17 20 -15 45 -18 135
-17 99 1 116 3 168 29 63 30 88 59 107 122 16 53 0 121 -42 175 -38 49 -86 64
-148 47 -110 -30 -241 -20 -310 23 -41 26 -100 -46 -100 -122 0 -30 -6 -52
-15 -60 -8 -7 -15 -25 -15 -41 0 -15 7 -34 15 -43 8 -8 15 -24 15 -35 0 -11 6
-26 13 -33 25 -25 56 -103 43 -108 -25 -11 -85 -73 -79 -83 4 -6 10 -4 17 5 6
8 31 29 55 46 44 32 44 32 63 13 19 -22 24 -66 8 -76 -5 -3 -10 -21 -10 -38 0
-18 -7 -41 -15 -51 -8 -11 -15 -32 -15 -46 0 -14 -5 -31 -12 -38 -11 -11 -23
-63 -35 -147 -3 -22 -12 -49 -19 -60 -8 -11 -14 -36 -14 -56 0 -21 -5 -39 -12
-41 -6 -2 -13 -30 -16 -61 -2 -32 -8 -60 -13 -63 -5 -3 -9 -25 -9 -48 0 -24
-7 -57 -15 -72 -8 -16 -15 -49 -15 -74 0 -26 -5 -51 -11 -57 -13 -13 -28 -112
-35 -233 -3 -53 -2 -71 5 -60 6 8 11 44 11 80 0 37 5 71 11 77 6 6 13 39 16
74 3 35 11 67 16 71 6 3 13 35 15 70 2 35 8 67 13 72 5 6 9 29 9 52 0 23 7 55
15 70 8 16 15 46 15 66 0 20 5 38 12 40 6 2 15 26 19 54 17 101 21 120 35 151
8 17 14 42 14 55 0 12 7 32 15 42 8 11 15 34 15 52 0 18 5 36 10 39 6 3 10 21
10 39 0 17 5 37 12 44 15 15 48 16 48 2 0 -24 137 -70 211 -70 30 0 63 -3 75
-6 20 -5 21 -7 7 -47 -8 -23 -18 -46 -23 -52 -7 -10 -14 -39 -27 -115 -3 -19
-12 -44 -19 -55 -8 -11 -14 -35 -14 -53 0 -18 -7 -40 -15 -48 -8 -9 -15 -33
-15 -54 0 -21 -4 -42 -10 -45 -5 -3 -10 -33 -10 -65 0 -35 -5 -60 -12 -62 -6
-2 -13 -31 -16 -64 -3 -32 -9 -62 -15 -66 -14 -8 -23 -168 -10 -168 11 0 23
69 23 129 0 21 5 42 11 48 10 10 22 74 36 193 3 30 10 58 15 61 5 3 12 26 15
50 3 24 10 50 16 57 10 12 19 52 34 142 3 19 12 44 19 55 8 11 14 28 14 38 0
10 7 25 15 33 8 9 15 28 15 43 0 35 10 43 85 66 33 10 65 22 72 27 17 13 78
-8 105 -35 11 -12 25 -34 30 -49 6 -16 14 -28 19 -28 5 0 9 -15 9 -34 0 -19 5
-38 10 -41 6 -3 10 -22 10 -41 0 -22 6 -37 15 -40 9 -4 15 -19 15 -38 0 -17 6
-40 14 -51 13 -20 22 -53 33 -127 3 -21 11 -42 19 -49 8 -6 14 -23 14 -38 0
-15 6 -35 14 -46 7 -11 16 -36 19 -55 11 -67 24 -120 34 -132 6 -7 13 -26 16
-43 2 -16 9 -43 15 -60 6 -16 16 -50 22 -75 6 -25 16 -58 22 -75 5 -16 14 -46
18 -65 4 -19 13 -48 18 -65 6 -16 16 -49 22 -72 6 -24 15 -43 20 -43 18 0 20
20 5 49 -8 17 -15 43 -15 60 0 16 -4 32 -9 35 -5 3 -11 20 -14 38 -2 18 -10
49 -17 68 -20 55 -23 65 -22 71 1 4 -8 31 -18 60 -11 30 -20 63 -20 74 0 12
-7 30 -15 41 -8 10 -15 30 -15 42 0 13 -6 38 -14 55 -8 18 -17 46 -21 62 -3
17 -10 48 -15 70 -4 22 -13 41 -19 43 -6 2 -11 18 -11 36 0 18 -7 41 -15 52
-8 10 -15 33 -15 51 0 17 -4 35 -10 38 -5 3 -10 19 -10 35 0 16 -7 35 -15 44
-8 8 -15 26 -15 40 0 13 -7 31 -15 40 -8 8 -15 30 -15 50 0 19 -4 38 -10 41
-5 3 -10 15 -10 26 0 10 -18 37 -40 59 -22 22 -40 48 -40 59 0 26 59 54 80 38
24 -19 59 -37 71 -37 6 0 25 -11 41 -26 17 -14 44 -28 60 -31 15 -3 31 -10 34
-14 3 -5 22 -9 43 -9 44 0 67 20 55 47 -4 10 -8 27 -9 38 -1 11 -4 43 -6 70
l-4 50 44 3 c24 2 56 -1 70 -7 22 -9 117 -14 183 -11 29 2 31 33 4 57 -14 12
-26 31 -26 43 0 11 -7 23 -15 26 -18 7 -20 60 -3 70 11 7 46 16 133 33 22 4
63 20 90 34 28 14 62 28 76 31 15 3 29 12 32 20 8 19 -61 117 -155 219 l-81
88 25 27 c14 15 47 60 73 99 26 40 51 75 56 79 5 3 9 14 9 24 0 10 3 20 8 22
10 4 42 67 42 82 0 7 -12 23 -26 37 -15 13 -69 73 -120 133 l-93 109 24 32
c14 17 25 37 25 43 0 7 13 40 30 75 16 35 32 77 36 93 5 27 1 31 -48 60 -29
17 -69 37 -88 44 -19 7 -62 25 -95 41 -33 15 -68 29 -78 31 -17 3 -19 17 -17
207 0 122 -3 208 -9 215 -6 7 -13 49 -17 94 -8 96 -22 124 -53 105 -12 -7 -30
-13 -40 -13 -11 0 -23 -4 -26 -10 -3 -5 -23 -17 -43 -27 -44 -21 -126 -74
-130 -85 -2 -4 -10 -8 -19 -8 -8 0 -43 -25 -78 -55 -39 -34 -71 -55 -86 -55
-26 0 -59 31 -59 54 0 7 -9 21 -21 32 -22 19 -59 89 -59 110 0 6 -6 17 -14 23
-7 6 -16 37 -20 68 -6 52 -19 83 -35 83 -3 0 -19 -19 -36 -42z m89 -178 c44
-90 42 -87 89 -143 l38 -45 -21 -39 c-31 -59 -7 -51 59 20 33 35 80 77 103 92
24 16 52 36 63 46 11 9 36 25 55 35 19 10 42 24 50 30 37 28 113 64 134 64 22
0 24 -5 31 -82 5 -46 9 -179 10 -296 1 -117 6 -216 11 -220 5 -4 34 -16 64
-26 108 -35 250 -103 258 -124 3 -9 -2 -28 -11 -44 -9 -17 -17 -36 -17 -43 0
-8 -18 -49 -40 -92 -22 -43 -40 -82 -40 -88 0 -5 17 -26 39 -46 21 -20 73 -76
115 -125 87 -99 88 -106 35 -181 -16 -23 -29 -44 -29 -48 0 -4 -21 -37 -48
-74 -26 -36 -58 -81 -70 -99 l-23 -33 59 -62 c132 -140 155 -168 166 -204 6
-20 -3 -24 -134 -67 -78 -25 -150 -46 -159 -46 -9 0 -25 -6 -34 -12 -14 -11
-15 -18 -4 -48 6 -19 22 -52 35 -73 35 -61 31 -69 -30 -60 -29 4 -96 8 -148 8
l-95 0 4 -104 3 -103 -23 7 c-47 13 -228 108 -234 123 -3 8 12 37 35 68 22 29
40 59 40 67 0 8 7 28 16 45 12 25 22 32 45 32 50 0 149 63 149 96 0 6 7 17 15
24 10 9 15 32 15 76 0 73 -24 122 -81 167 l-33 25 17 52 c24 73 25 482 2 537
-8 19 -15 46 -15 58 0 12 -7 28 -15 35 -8 7 -15 20 -15 29 0 49 -127 179 -217
222 -35 17 -107 39 -160 51 -93 20 -99 20 -177 4 -138 -29 -202 -59 -302 -143
-40 -35 -78 -63 -84 -63 -13 0 -30 -43 -28 -73 2 -34 -43 -169 -65 -192 -7 -7
-25 -29 -41 -49 -16 -20 -33 -36 -36 -36 -24 0 -114 114 -143 180 -4 8 -12 22
-19 31 -14 20 -3 53 16 46 19 -8 205 -11 212 -4 3 3 -7 40 -22 83 -25 72 -28
92 -28 224 0 108 4 162 18 210 9 36 22 83 28 105 21 84 18 82 83 27 66 -55
116 -85 157 -95 41 -11 58 -33 51 -67 -4 -23 -2 -30 9 -30 12 0 17 20 22 90 6
85 16 121 52 193 8 16 14 35 14 43 0 15 4 24 34 84 56 110 84 156 111 183 l30
31 6 -45 c3 -24 23 -78 43 -119z m-974 -244 c0 -3 -4 -8 -10 -11 -5 -3 -10 -1
-10 4 0 6 5 11 10 11 6 0 10 -2 10 -4z m59 -83 c30 -144 23 -224 -13 -155 -17
33 -24 222 -8 222 4 0 14 -30 21 -67z m-113 10 c-7 -17 -8 -17 -17 0 -12 21
-2 44 13 29 6 -6 8 -19 4 -29z m40 -127 l-7 -145 23 -3 c34 -5 34 -41 0 -96
-28 -46 -35 -72 -52 -177 -4 -27 -12 -63 -18 -80 -6 -16 -17 -61 -26 -100 -8
-38 -26 -117 -40 -175 -13 -58 -27 -118 -31 -135 l-7 -30 -17 25 c-9 14 -36
44 -61 67 -44 41 -44 42 -32 76 6 18 12 41 12 50 0 9 6 31 14 49 17 40 40 120
61 212 9 38 20 76 24 85 35 72 40 117 26 233 -6 43 -4 62 6 74 8 10 17 47 20
83 l6 66 1 -72 c2 -77 10 -90 42 -73 17 9 20 21 20 88 0 54 5 84 16 100 8 12
18 22 21 22 3 0 3 -65 -1 -144z m135 -108 c-37 -125 -64 -177 -89 -178 -14 0
-8 36 9 55 5 5 9 23 9 40 0 16 7 39 15 49 8 11 15 26 15 34 0 7 8 24 18 37 25
34 38 14 23 -37z m-81 8 c0 -7 -7 -19 -15 -26 -12 -10 -15 -9 -15 7 0 11 3 23
7 26 11 12 23 8 23 -7z m23 -253 c-29 -24 -58 -30 -67 -14 -11 17 4 38 37 52
28 13 33 13 45 0 11 -14 9 -19 -15 -38z m827 -35 c123 -36 260 -134 260 -188
0 -42 -16 -46 -63 -14 -44 30 -50 33 -139 81 -75 40 -104 45 -293 49 -88 2
-166 3 -172 4 -23 0 -13 39 14 57 47 31 301 38 393 11z m-1615 -146 c55 -11
91 -22 148 -46 33 -14 36 -19 27 -36 -12 -22 -10 -23 38 -20 24 1 40 -6 64
-30 17 -17 42 -38 55 -47 12 -8 23 -21 23 -28 0 -7 7 -18 15 -25 23 -19 18
-28 -17 -35 -61 -13 -135 -63 -160 -108 -34 -60 -53 -148 -39 -175 6 -11 11
-32 11 -46 0 -14 13 -47 30 -74 23 -38 42 -54 89 -76 67 -32 99 -32 172 3 23
12 46 21 51 21 24 0 -18 -181 -70 -300 -39 -91 -175 -260 -209 -260 -6 0 -13
-4 -15 -9 -5 -14 -99 -66 -143 -79 -153 -45 -303 -56 -372 -27 -19 8 -44 15
-54 15 -17 0 -30 5 -75 29 -53 28 -138 100 -181 154 -58 70 -62 83 -35 103 14
10 15 15 5 25 -10 10 -16 10 -25 1 -54 -54 -174 69 -146 150 13 37 61 82 95
88 14 3 28 11 31 19 4 11 -4 13 -36 8 -36 -4 -42 -2 -48 16 -9 30 5 233 22
296 27 105 91 214 178 305 44 46 97 93 116 105 72 42 160 81 187 82 15 1 39 5
53 9 28 10 141 6 215 -8z m1348 -154 l47 -52 0 -98 c0 -54 -4 -98 -9 -98 -5 0
-12 -8 -15 -17 -8 -23 -53 -74 -86 -96 -16 -11 -44 -17 -86 -17 -58 0 -63 2
-105 43 -31 29 -50 59 -63 98 -18 54 -19 58 -2 110 45 137 112 194 221 184 45
-5 55 -10 98 -57z m-343 -84 c0 -19 -22 -64 -32 -64 -9 0 -11 84 -1 93 8 9 33
-12 33 -29z m-616 -63 c3 -5 17 -12 31 -15 34 -9 83 -53 100 -91 14 -30 19
-86 16 -176 -1 -37 -8 -53 -37 -87 -38 -45 -89 -72 -134 -72 -15 0 -43 7 -63
15 -41 17 -107 90 -107 118 0 10 -8 35 -17 54 -12 27 -14 40 -5 53 6 10 14 35
18 56 9 47 74 120 115 129 16 4 31 11 34 16 8 12 42 12 49 0z m653 -188 c10
-36 5 -203 -7 -203 -13 0 -99 93 -100 108 0 6 -5 12 -11 12 -25 0 0 46 41 76
56 40 66 41 77 7z m251 -353 c20 -13 42 -18 56 -14 31 7 62 -22 45 -42 -17
-21 -47 -17 -60 7 -8 15 -14 18 -22 10 -29 -29 -77 -1 -77 43 0 21 18 20 58
-4z m286 11 c4 -5 2 -21 -4 -35 -10 -27 -43 -36 -55 -15 -5 7 -16 2 -31 -12
-20 -19 -27 -21 -49 -11 -50 23 -15 62 42 47 19 -4 29 -1 40 15 15 21 47 27
57 11z m8 -238 c49 -44 -1 -69 -140 -71 -84 -2 -104 1 -109 13 -3 10 -12 13
-24 10 -20 -7 -63 30 -54 45 10 17 44 11 57 -9 12 -19 13 -19 38 -1 29 21 41
17 60 -19 11 -21 14 -22 22 -8 5 9 17 21 28 27 16 9 22 6 33 -16 l14 -26 21
36 c24 41 28 42 54 19z"/>
<path d="M1509 2937 c-19 -7 -46 -19 -60 -29 -22 -15 -22 -17 -6 -23 11 -5 25
-1 35 7 23 21 87 29 142 18 53 -10 77 4 35 20 -45 17 -107 20 -146 7z"/>
<path d="M1495 2721 c-60 -15 -80 -30 -131 -96 -36 -47 -47 -81 -47 -150 1
-102 29 -164 102 -226 57 -50 124 -65 194 -45 68 20 100 45 143 112 32 50 34
58 34 144 0 88 -1 94 -36 146 -63 95 -164 140 -259 115z m120 -31 c23 0 115
-74 115 -93 0 -6 7 -19 17 -29 13 -14 16 -38 16 -109 0 -50 -5 -94 -9 -98 -5
-3 -22 -25 -37 -48 -15 -24 -34 -43 -42 -43 -9 0 -18 -6 -21 -14 -3 -8 -25
-19 -50 -26 -49 -14 -123 0 -145 26 -6 8 -16 14 -22 14 -18 0 -47 32 -47 52 0
10 -7 21 -15 24 -8 4 -15 14 -15 23 0 9 -7 29 -15 45 -19 36 -19 95 0 120 8
11 15 26 15 34 0 8 14 32 31 53 43 55 108 82 173 73 16 -2 39 -4 51 -4z"/>
<path d="M1686 2551 c-8 -12 21 -34 34 -26 17 11 11 35 -9 35 -11 0 -22 -4
-25 -9z"/>
<path d="M1866 2342 c-6 -9 51 -72 64 -72 5 0 13 -14 19 -31 19 -54 -15 -74
-73 -44 -16 9 -31 14 -33 12 -9 -10 12 -39 39 -53 39 -20 74 -11 92 23 19 37
4 77 -47 131 -42 43 -52 48 -61 34z"/>
<path d="M1912 2064 c-36 -16 -110 -20 -250 -14 -87 4 -93 3 -117 -20 -13 -14
-31 -42 -39 -62 -15 -35 -15 -38 15 -95 34 -65 88 -126 134 -151 39 -21 195
-23 245 -3 41 18 150 109 150 126 0 7 7 18 15 25 8 7 20 31 26 53 24 89 -20
158 -101 156 -25 0 -60 -7 -78 -15z m113 -24 c19 -31 -32 -72 -55 -45 -9 11
-16 8 -35 -11 -13 -13 -30 -24 -38 -24 -22 0 -39 27 -32 50 5 16 15 20 45 20
21 0 42 5 45 10 8 13 62 13 70 0z m-298 -29 c16 -17 25 -19 58 -11 31 7 43 6
55 -6 13 -13 13 -16 0 -24 -20 -13 -57 -13 -80 0 -13 7 -21 7 -25 0 -3 -5 -17
-10 -30 -10 -26 0 -61 42 -50 60 10 17 53 11 72 -9z"/>
<path d="M2862 2753 c4 -22 43 -25 43 -3 0 8 -11 16 -23 18 -19 3 -23 0 -20
-15z"/>
<path d="M2217 2584 c-3 -3 -3 -12 0 -20 4 -10 10 -11 24 -3 11 5 17 14 14 20
-7 10 -28 12 -38 3z"/>
<path d="M3393 2831 c-44 -8 -119 -73 -143 -123 -14 -30 -20 -62 -20 -114 0
-82 10 -111 57 -171 51 -64 88 -77 211 -74 38 1 49 7 96 54 32 32 56 66 61 85
3 17 11 34 16 37 15 10 10 96 -8 145 -22 59 -31 72 -84 118 -37 33 -53 40 -99
44 -30 3 -69 3 -87 -1z m156 -55 c42 -27 81 -75 81 -99 0 -9 5 -19 10 -22 6
-3 10 -33 10 -65 0 -32 -4 -62 -10 -65 -5 -3 -10 -16 -10 -28 -1 -28 -23 -55
-79 -95 -127 -92 -301 19 -301 193 0 53 4 66 37 113 46 67 90 91 166 92 44 0
66 -6 96 -24z"/>
<path d="M3337 2664 c-11 -11 5 -34 23 -34 18 0 34 23 23 34 -4 3 -14 6 -23 6
-9 0 -19 -3 -23 -6z"/>
<path d="M3440 2229 c-13 -8 -12 -12 7 -28 40 -33 73 -109 73 -166 0 -35 -5
-57 -15 -65 -8 -7 -15 -21 -15 -31 0 -10 -4 -21 -10 -24 -11 -7 -14 -45 -4
-45 11 0 43 45 44 61 0 8 7 24 15 35 23 31 19 117 -9 172 -35 69 -68 104 -86
91z"/>
<path d="M2590 2166 c0 -25 5 -48 10 -51 6 -3 10 -21 10 -39 0 -19 6 -39 14
-46 8 -6 16 -28 18 -47 2 -20 9 -38 16 -41 18 -5 16 53 -3 72 -8 8 -15 27 -15
43 0 15 -7 41 -15 57 -8 15 -15 44 -15 62 0 19 -4 34 -10 34 -5 0 -10 -20 -10
-44z"/>
<path d="M2670 1881 c0 -27 5 -53 10 -56 6 -3 10 -19 10 -34 0 -15 7 -36 15
-47 8 -10 15 -33 15 -50 0 -17 7 -37 15 -44 8 -7 15 -25 15 -41 0 -15 5 -31
10 -34 6 -3 10 -21 10 -39 0 -17 4 -36 10 -42 11 -11 -13 -97 -41 -144 -5 -8
-11 -21 -14 -27 -3 -7 -7 -19 -10 -25 -3 -7 -11 -21 -17 -31 -11 -15 -10 -20
7 -33 32 -24 28 -118 -9 -175 -15 -24 -40 -54 -54 -66 l-27 -23 0 -360 c0
-198 3 -359 8 -357 4 1 10 160 13 352 l5 350 53 55 c74 76 101 119 87 133 -6
6 -11 17 -11 25 0 8 -10 28 -22 44 -19 27 -20 34 -9 67 14 42 30 80 42 101 32
57 69 135 69 146 0 6 7 14 15 18 8 3 15 15 15 26 0 11 4 20 10 20 5 0 12 11
16 25 3 14 10 25 15 25 5 0 9 8 9 19 0 10 7 24 15 31 17 14 20 40 6 40 -11 0
-41 -56 -41 -77 0 -7 -4 -13 -9 -13 -5 0 -14 -12 -20 -27 -17 -42 -45 -86 -59
-91 -12 -4 -46 63 -57 113 -14 68 -24 103 -49 169 -14 38 -26 79 -26 92 0 12
-4 26 -10 29 -6 4 -10 -13 -10 -44z"/>
<path d="M2117 1763 c-11 -10 -8 -73 3 -73 6 0 10 18 10 40 0 41 -2 45 -13 33z"/>
<path d="M2084 1643 c-3 -15 -12 -42 -20 -60 -8 -17 -14 -39 -15 -50 -1 -25
-51 -116 -66 -121 -10 -3 -13 14 -13 62 0 36 -5 68 -11 72 -12 7 -11 -7 10
-256 6 -74 15 -157 20 -185 6 -27 13 -117 17 -200 6 -117 9 -140 15 -105 12
69 10 305 -2 337 -6 15 -14 71 -19 123 -8 86 -7 98 11 122 10 15 19 34 19 42
0 8 5 18 10 21 6 3 10 19 10 36 0 16 4 29 10 29 5 0 13 12 16 27 4 15 13 38
20 52 16 30 18 67 4 76 -5 3 -12 -7 -16 -22z"/>
<path d="M3451 1570 c-1 -3 -5 -104 -7 -225 l-5 -220 -52 -49 c-29 -26 -60
-54 -70 -61 -25 -17 -17 -41 33 -96 33 -37 40 -51 40 -87 0 -25 -6 -50 -15
-58 -8 -9 -15 -24 -15 -35 0 -11 -7 -27 -15 -35 -8 -9 -15 -26 -15 -39 0 -13
-4 -27 -10 -30 -5 -3 -10 -15 -10 -26 0 -11 -7 -27 -15 -35 -8 -9 -15 -24 -15
-35 0 -11 -7 -27 -15 -35 -8 -9 -15 -26 -15 -39 0 -13 -4 -27 -10 -30 -5 -3
-10 -20 -10 -36 0 -18 4 -28 10 -24 6 3 10 17 10 31 0 14 7 32 15 40 8 9 15
26 15 39 0 12 7 25 15 29 9 3 15 18 15 35 0 16 5 33 10 36 6 3 10 17 10 29 0
13 7 29 15 36 8 7 15 21 15 32 0 11 7 26 15 34 8 9 15 26 15 39 0 13 5 27 10
30 15 9 12 78 -4 109 -7 14 -25 37 -40 51 -38 36 -33 55 31 100 30 22 61 49
69 60 10 16 11 66 5 245 -4 124 -9 223 -10 220z"/>
<path d="M1287 1354 c-4 -4 -7 -14 -7 -21 0 -8 -7 -21 -15 -29 -16 -17 -21
-64 -6 -64 11 0 21 25 21 51 0 10 4 19 9 19 13 0 23 32 13 42 -5 5 -11 5 -15
2z"/>
<path d="M3520 1243 c0 -16 4 -35 10 -43 8 -12 10 -12 16 3 8 21 -3 67 -16 67
-6 0 -10 -12 -10 -27z"/>
<path d="M1238 1224 c-5 -4 -8 -23 -8 -43 0 -25 3 -32 11 -24 6 6 9 25 7 43
-2 17 -6 28 -10 24z"/>
<path d="M934 1165 c-4 -9 -4 -27 -1 -41 2 -15 -2 -38 -9 -53 -16 -30 -20
-155 -4 -131 5 8 10 43 10 77 0 34 4 63 10 65 15 5 25 98 11 98 -6 0 -14 -7
-17 -15z"/>
<path d="M3550 1146 c0 -19 5 -38 10 -41 6 -4 10 8 10 29 0 19 -4 38 -10 41
-6 4 -10 -8 -10 -29z"/>
<path d="M1204 1093 c-3 -21 -13 -58 -20 -82 -13 -38 -13 -46 1 -67 13 -20 15
-76 16 -366 0 -189 3 -353 6 -365 3 -12 12 -24 20 -27 13 -5 14 1 9 36 -3 24
-6 235 -7 471 -1 394 -8 497 -25 400z"/>
<path d="M3570 1071 c0 -26 10 -51 21 -51 10 0 12 31 3 54 -9 22 -24 20 -24
-3z"/>
<path d="M3607 1004 c-4 -4 -7 -48 -7 -98 0 -50 -7 -126 -15 -169 -19 -100
-21 -321 -2 -315 8 3 13 42 15 136 1 77 7 132 12 132 6 0 10 21 10 48 0 55 9
92 21 92 5 0 9 -15 9 -33 0 -18 7 -42 15 -53 8 -10 15 -32 15 -47 0 -15 7 -30
15 -33 10 -4 15 -20 15 -49 0 -24 5 -47 10 -50 6 -3 10 -18 10 -33 0 -15 7
-40 15 -56 8 -15 15 -40 15 -55 0 -15 6 -35 14 -46 13 -20 20 -46 34 -133 4
-23 12 -44 17 -45 16 -3 18 62 2 86 -8 12 -17 38 -20 57 -12 73 -28 135 -37
144 -6 6 -10 21 -10 35 -1 15 -7 37 -15 51 -8 14 -14 37 -15 52 0 15 -4 30
-10 33 -5 3 -10 21 -10 39 0 18 -7 41 -15 52 -8 10 -15 31 -15 45 0 15 -7 32
-15 39 -8 7 -15 21 -15 31 0 19 -18 101 -29 132 -3 10 -10 15 -14 11z"/>
<path d="M1158 904 c-5 -4 -8 -18 -8 -30 0 -33 -28 -44 -108 -44 -84 0 -132
15 -132 40 0 30 -17 32 -24 4 -5 -17 -2 -32 9 -43 19 -22 19 -71 0 -118 -8
-19 -15 -54 -15 -77 0 -23 -5 -47 -10 -52 -6 -6 -13 -55 -16 -110 -3 -54 -10
-109 -16 -121 -13 -26 -6 -38 16 -30 9 4 17 25 20 54 3 26 11 80 17 118 7 39
15 97 19 130 8 59 17 118 26 163 4 20 10 22 74 22 38 0 72 -5 75 -11 7 -10 -2
-74 -30 -214 -48 -246 -58 -340 -35 -340 11 0 16 13 18 45 2 24 7 49 12 55 4
5 11 44 15 85 9 81 10 95 24 185 20 124 35 176 58 202 18 18 23 34 21 60 -2
19 -6 31 -10 27z"/>
<path d="M3158 707 c-5 -10 -8 -64 -7 -120 1 -82 3 -95 10 -69 11 38 8 216 -3
189z"/>
<path d="M2032 500 c0 -118 4 -226 8 -240 11 -34 11 -25 10 208 -1 112 -5 213
-10 225 -5 14 -9 -59 -8 -193z"/>
<path d="M2726 489 c-8 -42 -6 -139 3 -164 10 -26 21 37 21 128 0 70 -13 90
-24 36z"/>
<path d="M3126 409 c-11 -113 -7 -301 7 -297 9 4 13 51 15 181 2 174 -9 236
-22 116z"/>
<path d="M3559 410 c0 -3 -4 -63 -8 -135 -5 -72 -10 -137 -12 -145 -2 -8 3
-15 11 -15 12 0 16 25 22 140 5 88 4 143 -2 149 -6 6 -10 8 -11 6z"/>
<path d="M3204 356 c-4 -10 -2 -22 4 -28 8 -8 13 -7 18 6 4 10 2 22 -4 28 -8
8 -13 7 -18 -6z"/>
<path d="M2697 258 c-5 -36 7 -58 23 -42 11 11 2 74 -10 74 -4 0 -10 -15 -13
-32z"/>
</g>
</svg>
